<?xml version="1.0" standalone="no"?>
<!DOCTYPE svg PUBLIC "-//W3C//DTD SVG 1.1//EN" "http://www.w3.org/Graphics/SVG/1.1/DTD/svg11.dtd">
<svg xmlns="http://www.w3.org/2000/svg" viewBox="0 0 1358.66 229.29" width="1358.6600341796875" height="229.2899932861328"><defs><style>.cls-1,.cls-2{fill:#282b2d;}.cls-2{stroke:#fff;stroke-miterlimit:10;stroke-width:0.5px;}</style></defs><title>Asset 3</title><g id="Layer_2" data-name="Layer 2"><g id="Layer_4" data-name="Layer 4"><path class="cls-1" d="M775.67,175.14h-9.11V68.19L722,142.12h-1.55L676,68.19v107h-9.11V54.78h11.35l43,71.18,43-71.18h11.52Z"/><path class="cls-1" d="M929.7,165.92v8.59H860.42V54.16h68.42v8.59H869.53v46.77h55v8.6h-55v47.8Z"/><path class="cls-1" d="M1106.65,113.56c0,33.18-23.56,60.18-56.74,60.18h-45.22V53.38h45.22C1083.09,53.38,1106.65,80.38,1106.65,113.56Zm-8.94,0c0-28.54-19.43-51.58-47.8-51.58H1013.8V165.14h36.11C1078.28,165.14,1097.71,142.1,1097.71,113.56Z"/><path class="cls-1" d="M1184.78,53.38V173.74h-9.11V53.38Z"/><path class="cls-1" d="M1337.34,143.13H1277l-11.69,30.61h-9.63l46.77-120.36h9.62l46.6,120.36H1349Zm-3.27-8.59-26.82-70-26.82,70Z"/><path class="cls-2" d="M548.45,207.11q-25,21.6-64.32,21.6t-64.32-21.6q-25-21.6-25-57.39V.25h57.71v144q0,28.38,31.59,28.37t31.6-28.37l0-144h57.71l0,149.47Q573.44,185.51,548.45,207.11Z"/><polygon class="cls-2" points="312.27 0.25 271.28 85.19 230.61 0.25 166.11 0.25 242.78 140.92 242.78 228.71 300.1 228.71 300.1 140.28 376.77 0.25 312.27 0.25"/><path class="cls-2" d="M58,229V153.71H78.61L117,229h61.85l-45.42-86a75.86,75.86,0,0,0,28.05-26.92,70.19,70.19,0,0,0,10.32-37.24Q171.79,45,148.42,23T90.54.87H.25V229H58ZM57.58,54.48h31.7q10.57,0,17.29,7.05t6.73,18.25Q113.3,91,106.57,98t-17.29,6.72H57.58Z"/></g></g></svg>